<svg xmlns="http://www.w3.org/2000/svg" version="1.1" xmlns:xlink="http://www.w3.org/1999/xlink" width="1500" height="1500" viewBox="0 0 1500 1500"><rect width="1500" height="1500" x="0" y="0" id="background" stroke="transparent" fill="none"></rect><svg xml:space="preserve" width="1000" height="1000" data-version="2" data-id="lg_WpQZgZx1FBGl2ZaiD3" viewBox="0 0 717 682" x="250" y="250"><rect width="100%" height="100%" fill="transparent"></rect><path d="m7.098 167.96 224.669-98.313v28.388L42.453 178.658v.831l189.314 80.664v28.388L7.098 190.188zm255.923 137.054L398.074 6.672h32.947L295.467 305.014zm423.04-114.38L461.394 288.56v-28.408l190.744-80.664v-.83L461.393 98.034V69.647l224.669 97.928z"></path><circle r="3.55" transform="matrix(23.84 0 0 20.2623 346.58 415.97)"></circle><path d="M342.575 655.066 260.78 504.355s-85.8.972-85.8 68.06v82.65zm8.01 0 81.795-150.711s85.8.972 85.8 68.06v82.65zm-4.005-150.752h-58.885L346.58 615.15l58.885-110.835z"></path></svg></svg>